# xmcd
#
# Track frame offsets:
#	150
#	16394
#	30341
#	45844
#	57931
#	75040
#	96356
#	129633
#	140298
#	156174
#	168325
#	183659
#	199086
#
# Disc length: 2884 seconds
#
# Revision: 0
# Processed by: cddbd v1.5.2PL0 Copyright (c) Steve Scherf et al.
# Submitted via: audiograbber 1.83.01
#
DISCID=9a0b420d
DTITLE=Morrison Brothers - 21st Century Hoedown
DYEAR=2007
DGENRE=Contra
TTITLE0=Driving to Virginia (Owen Morrison)
TTITLE1=Way Down in Union County
TTITLE2=Blackest Crow
TTITLE3=Dark Clouds (Kelly Perdue)
TTITLE4=Peter Street/Big John McNeil (trad./Peter Milne)
TTITLE5=Uncle Herm's Hornpipe
TTITLE6=Shenandoah Odyssey (Shenandoah Falls, Crazy Dog by Rodney Miller, Coler
TTITLE6=aine)
TTITLE7=Betty Ann
TTITLE8=Luck Penny/Untitled
TTITLE9=Yellow Barber
TTITLE10=Going to the Free State (John Ashby)
TTITLE11=Sugar Hollow (Owen Morrison)
TTITLE12=Evit Gabriel (Daniel Thonon)
EXTD=
EXTT0=
EXTT1=
EXTT2=
EXTT3=
EXTT4=
EXTT5=
EXTT6=
EXTT7=
EXTT8=
EXTT9=
EXTT10=
EXTT11=
EXTT12=
PLAYORDER=
